<?xml version="1.0" encoding="UTF-8"?>
<svg id="katman_1" xmlns="http://www.w3.org/2000/svg" version="1.1" viewBox="0 0 2834.65 2834.65">
  <!-- Generator: Adobe Illustrator 30.1.0, SVG Export Plug-In . SVG Version: 2.1.1 Build 136)  -->
  <text/>
  <path d="M52.37,538h1451.55c22.84,0,26.49,36.92,4.22,42.61-898.46,229.51-997.48,888.69,124.33,1649.64,17.99,12.21,7.98,43.49-12.78,39.89C823.56,2132.21,283.61,1513.61,33.97,565.67c-3.64-13.81,5.62-27.67,18.4-27.67Z"/>
  <rect x="1020.49" y="660.14" width="192.69" height="1245.92"/>
  <path d="M1293.69,696.43h1497.01c10.66,0,19.3,9.73,19.3,21.74v189.42c0,10.58-6.81,19.59-16.06,21.41-556.74,109.62-729.1,392.15-482.73,851.97,7.75,14.46-1.55,32.91-16.54,32.91h-1000.98c-10.66,0-19.3-9.73-19.3-21.74V718.17c0-12.01,8.64-21.74,19.3-21.74Z"/>
  <path d="M2481.56,2108.79h-1334.89c-8.58,0-15.53-7.83-15.53-17.49v-194.66c0-9.66,6.95-17.49,15.53-17.49h1334.89c8.58,0,15.53,7.83,15.53,17.49v194.66c0,9.66-6.95,17.49-15.53,17.49Z"/>
</svg>