<?xml version="1.0" encoding="UTF-8"?>
<svg id="katman_1" xmlns="http://www.w3.org/2000/svg" version="1.1" viewBox="0 0 2834.65 2834.65">
  <!-- Generator: Adobe Illustrator 30.1.0, SVG Export Plug-In . SVG Version: 2.1.1 Build 136)  -->
  <path d="M39.9,219.42h1505.44c23.69,0,27.47,54.1,4.38,62.44-931.82,336.32-1034.51,1302.27,128.95,2417.35,18.66,17.89,8.28,63.73-13.25,58.45C839.72,2555.55,279.73,1649.06,20.82,259.97c-3.78-20.24,5.83-40.55,19.08-40.55Z"/>
  <path d="M1019.15,542.53h1772.66c12.62,0,22.85,12.93,22.85,28.9v251.8c0,14.06-8.06,26.04-19.02,28.46-659.25,145.72-863.35,521.29-571.62,1132.53,9.18,19.22-1.84,43.75-19.59,43.75H1019.15c-12.62,0-22.85-12.93-22.85-28.9V571.43c0-15.96,10.23-28.9,22.85-28.9Z"/>
</svg>